<svg xmlns="http://www.w3.org/2000/svg" viewBox="0 0 1004 534">
  <path d="M31,259 L183,395 L399,502 L604,502 L820,395 L972,260 L819,123 L608,31 L395,31 L184,123 Z M787,350 L786,355 L594,450 L576,449 L576,445 L727,295 L732,295 Z M109,257 L175,199 L180,199 L427,445 L427,449 L410,450 L211,352 L111,264 Z M590,84 L602,83 L791,166 L893,256 L894,262 L832,317 L823,320 L590,88 Z M414,84 L414,88 L276,224 L271,224 L216,169 L216,165 L225,160 L401,83 Z M499,69 L504,69 L694,257 L694,262 L504,451 L498,450 L309,262 L309,257 Z" fill="#1e3a8a" fill-rule="evenodd"/>
  <path d="M508,161 L493,161 L492,172 L450,193 L432,192 L429,210 L389,256 L377,257 L377,272 L390,274 L428,331 L428,348 L452,349 L489,366 L491,376 L500,377 L506,376 L508,365 L561,337 L578,338 L580,320 L613,275 L628,270 L628,255 L616,254 L588,221 L584,201 L560,199 L511,173 Z M444,336 L472,315 L482,314 L494,360 L488,363 L444,342 Z M486,315 L492,310 L555,327 L563,332 L509,362 L498,361 Z M568,321 L559,326 L496,309 L491,305 L553,285 L563,291 Z M612,267 L613,271 L577,320 L572,322 L565,289 L570,287 L570,280 Z M442,259 L447,262 L472,295 L475,307 L470,314 L446,332 L439,333 L438,306 Z M394,263 L428,255 L438,260 L434,333 L393,275 Z M516,231 L552,271 L554,281 L491,301 L487,295 L510,231 Z M502,229 L506,234 L483,298 L477,298 L448,259 L448,251 Z M580,216 L611,252 L613,262 L571,276 L566,272 L575,220 L577,216 Z M521,222 L565,212 L573,217 L561,273 L552,268 L519,230 Z M437,208 L439,242 L433,243 L432,251 L393,261 L392,257 L430,212 Z M441,242 L441,209 L447,207 L448,204 L503,223 L501,226 L451,246 Z M504,178 L510,175 L567,205 L568,208 L520,220 L519,216 L510,213 Z M508,214 L501,219 L449,202 L447,198 L488,176 L499,176 L502,180 Z" fill="#2d6b4f" fill-rule="evenodd"/>
</svg>